<svg width="24" height="25" viewBox="0 0 24 25" fill="none" xmlns="http://www.w3.org/2000/svg">
            <path d="M13.3102 21.025C11.9879 21.2316 10.6355 21.123 9.36308 20.7081C8.09069 20.2931 6.93425 19.5836 5.98791 18.6373C5.04156 17.6909 4.33205 16.5345 3.91713 15.2621C3.50221 13.9897 3.39361 12.6373 3.60016 11.315C3.07889 10.3235 2.88841 9.19132 3.05657 8.08385C3.22472 6.97638 3.74269 5.95172 4.53477 5.15964C5.32684 4.36757 6.3515 3.8496 7.45897 3.68144C8.56644 3.51329 9.69867 3.70377 10.6902 4.22504C12.0125 4.01848 13.3648 4.12709 14.6372 4.54201C15.9096 4.95693 17.0661 5.66644 18.0124 6.61279C18.9588 7.55913 19.6683 8.71557 20.0832 9.98796C20.4981 11.2603 20.6067 12.6127 20.4002 13.935C20.9214 14.9265 21.1119 16.0587 20.9437 17.1662C20.7756 18.2737 20.2576 19.2984 19.4655 20.0904C18.6735 20.8825 17.6488 21.4005 16.5413 21.5686C15.4339 21.7368 14.3016 21.5463 13.3102 21.025ZM12.0522 17.781H12.0122C14.8842 17.781 16.3152 16.395 16.3152 14.538C16.3152 13.34 15.7642 12.067 13.5892 11.58L11.6062 11.14C10.8512 10.968 9.98416 10.74 9.98416 10.025C9.98416 9.31003 10.6042 8.81204 11.7082 8.81204C13.9382 8.81204 13.7352 10.34 14.8392 10.34C15.4152 10.34 15.9322 9.99803 15.9322 9.41004C15.9322 8.04004 13.7352 7.01004 11.8762 7.01004C9.85516 7.01004 7.70316 7.86904 7.70316 10.154C7.70316 11.252 8.09716 12.424 10.2632 12.967L12.9522 13.638C13.7682 13.84 13.9702 14.297 13.9702 14.71C13.9702 15.397 13.2862 16.068 12.0522 16.068C9.63516 16.068 9.97416 14.211 8.67816 14.211C8.09816 14.211 7.67516 14.609 7.67516 15.182C7.67516 16.296 9.02716 17.78 12.0522 17.78V17.781Z" fill="#FF5300" />
        </svg>