  <svg width="24" height="25" viewBox="0 0 24 25" fill="none" xmlns="http://www.w3.org/2000/svg">
            <path d="M12 2.625C14.717 2.625 15.056 2.635 16.122 2.685C17.187 2.735 17.912 2.902 18.55 3.15C19.21 3.404 19.766 3.748 20.322 4.303C20.8305 4.8029 21.224 5.40759 21.475 6.075C21.722 6.712 21.89 7.438 21.94 8.503C21.987 9.569 22 9.908 22 12.625C22 15.342 21.99 15.681 21.94 16.747C21.89 17.812 21.722 18.537 21.475 19.175C21.2247 19.8428 20.8311 20.4476 20.322 20.947C19.822 21.4553 19.2173 21.8488 18.55 22.1C17.913 22.347 17.187 22.515 16.122 22.565C15.056 22.612 14.717 22.625 12 22.625C9.283 22.625 8.944 22.615 7.878 22.565C6.813 22.515 6.088 22.347 5.45 22.1C4.78233 21.8495 4.17753 21.4559 3.678 20.947C3.16941 20.4472 2.77593 19.8425 2.525 19.175C2.277 18.538 2.11 17.812 2.06 16.747C2.013 15.681 2 15.342 2 12.625C2 9.908 2.01 9.569 2.06 8.503C2.11 7.437 2.277 6.713 2.525 6.075C2.77524 5.40718 3.1688 4.80232 3.678 4.303C4.17767 3.79423 4.78243 3.40073 5.45 3.15C6.088 2.902 6.812 2.735 7.878 2.685C8.944 2.638 9.283 2.625 12 2.625ZM12 7.625C10.6739 7.625 9.40215 8.15178 8.46447 9.08947C7.52678 10.0271 7 11.2989 7 12.625C7 13.9511 7.52678 15.2229 8.46447 16.1605C9.40215 17.0982 10.6739 17.625 12 17.625C13.3261 17.625 14.5979 17.0982 15.5355 16.1605C16.4732 15.2229 17 13.9511 17 12.625C17 11.2989 16.4732 10.0271 15.5355 9.08947C14.5979 8.15178 13.3261 7.625 12 7.625ZM18.5 7.375C18.5 7.04348 18.3683 6.72554 18.1339 6.49112C17.8995 6.2567 17.5815 6.125 17.25 6.125C16.9185 6.125 16.6005 6.2567 16.3661 6.49112C16.1317 6.72554 16 7.04348 16 7.375C16 7.70652 16.1317 8.02446 16.3661 8.25888C16.6005 8.4933 16.9185 8.625 17.25 8.625C17.5815 8.625 17.8995 8.4933 18.1339 8.25888C18.3683 8.02446 18.5 7.70652 18.5 7.375ZM12 9.625C12.7956 9.625 13.5587 9.94107 14.1213 10.5037C14.6839 11.0663 15 11.8294 15 12.625C15 13.4206 14.6839 14.1837 14.1213 14.7463C13.5587 15.3089 12.7956 15.625 12 15.625C11.2044 15.625 10.4413 15.3089 9.87868 14.7463C9.31607 14.1837 9 13.4206 9 12.625C9 11.8294 9.31607 11.0663 9.87868 10.5037C10.4413 9.94107 11.2044 9.625 12 9.625Z" fill="#FF5300" />
        </svg>