<svg width="24" height="25" viewBox="0 0 24 25" fill="none" xmlns="http://www.w3.org/2000/svg">
            <g clip-path="url(#clip0_90202_191)">
                <path d="M22.1623 6.28105C21.3989 6.61874 20.5893 6.84052 19.7603 6.93905C20.634 6.41648 21.288 5.59406 21.6003 4.62505C20.7803 5.11305 19.8813 5.45505 18.9443 5.64005C18.3149 4.96663 17.4807 4.52001 16.5713 4.36963C15.6618 4.21925 14.7282 4.37354 13.9156 4.8085C13.1029 5.24346 12.4567 5.93473 12.0774 6.77484C11.6981 7.61495 11.607 8.55683 11.8183 9.45405C10.1554 9.3707 8.52863 8.93857 7.04358 8.18571C5.55854 7.43285 4.24842 6.3761 3.1983 5.08405C2.82659 5.7225 2.63125 6.44828 2.6323 7.18705C2.6323 8.63705 3.3703 9.91805 4.4923 10.668C3.82831 10.6471 3.17893 10.4678 2.5983 10.145V10.197C2.5985 11.1627 2.93267 12.0987 3.54414 12.8461C4.15562 13.5936 5.00678 14.1065 5.9533 14.298C5.33691 14.4651 4.6906 14.4897 4.0633 14.37C4.33016 15.2013 4.8503 15.9282 5.55089 16.4492C6.25147 16.9701 7.09742 17.2588 7.9703 17.275C7.10278 17.9564 6.10947 18.46 5.04718 18.7572C3.98488 19.0544 2.87442 19.1393 1.7793 19.007C3.69099 20.2365 5.91639 20.8892 8.1893 20.887C15.8823 20.887 20.0893 14.514 20.0893 8.98705C20.0893 8.80705 20.0843 8.62505 20.0763 8.44705C20.8952 7.85522 21.6019 7.12207 22.1633 6.28205L22.1623 6.28105Z" fill="#FF5300" />
            </g>
            <defs>
                <clipPath id="clip0_90202_191">
                    <rect width="24" height="24" fill="white" transform="translate(0 0.625)" />
                </clipPath>
            </defs>
        </svg>
